<?xml version="1.0" encoding="utf-8"?>
<!-- Generator: Adobe Illustrator 23.1.0, SVG Export Plug-In . SVG Version: 6.00 Build 0)  -->
<svg version="1.1" id="Layer_2" xmlns="http://www.w3.org/2000/svg" xmlns:xlink="http://www.w3.org/1999/xlink" x="0px" y="0px"
	 viewBox="0 0 303.4 91.2" style="enable-background:new 0 0 303.4 91.2;" xml:space="preserve">
<style type="text/css">
	.st0{clip-path:url(#SVGID_2_);fill:#E21F26;}
</style>
<g>
	<defs>
		<rect id="SVGID_1_" x="-14.2" y="-3.3" width="334.7" height="97.5"/>
	</defs>
	<clipPath id="SVGID_2_">
		<use xlink:href="#SVGID_1_"  style="overflow:visible;"/>
	</clipPath>
	<path class="st0" d="M286.5,46.6l-1.2-1.3v-1.6v-1.3c-1.4-22.9-20.3-40.6-43-41.2H240c-22.5,0.6-41.2,18-43,40.5v3.8l-0.8,1
		l-15.7,17.1h20.3c7,15.3,22.5,25.7,40.3,25.7c17.7,0,33.3-10.5,40.3-25.7h21L286.5,46.6z M273.5,21.2c4.4,5.7,7.3,12.6,8,20
		l-14.9-16.1l-3.9,0c-0.6-1.4-1.2-2.7-1.8-4H273.5z M271.2,18.5h-11.8c-2.9-4.9-6.7-9.2-11.1-12.5C257.4,7.6,265.3,12.1,271.2,18.5
		 M242.3,5.4l1.7,0.1c5.2,3.1,9.7,7.6,13.2,13h-14.9V5.4z M242.3,21.2h16.5c0.7,1.3,1.3,2.6,1.9,4h-10.3l-8.1,8.7V21.2z M240,5.4
		v13.1h-15.3c3.5-5.4,8.1-9.9,13.3-13L240,5.4z M240,21.2v12.4l-7.7-8.5h-11.1c0.6-1.4,1.3-2.7,2-4H240z M233.7,6
		c-4.4,3.3-8.2,7.6-11.2,12.4H211C216.9,12.2,224.7,7.7,233.7,6 M208.7,21.2H221c-0.7,1.3-1.3,2.6-1.9,4h-3.3l-15.2,16.6
		C201.3,34.1,204.2,27,208.7,21.2 M208.3,68.9c-1.4-1.9-2.7-4-3.8-6.1l10.9-12.4c0.7,6.7,2.6,12.9,5.5,18.5H208.3z M210.6,71.6h11.9
		c3.1,5.2,7.2,9.7,12,13.1C224.9,83.2,216.6,78.4,210.6,71.6 M240,85.2l-1.2,0c-5.6-3.1-10.4-7.8-14.2-13.6H240V85.2z M240,68.9h-17
		c-3.3-6-5.4-13-5.9-20.4l4.4-5L240,64.3V68.9z M242.3,85.2V71.6h15c-3.6,5.8-8.4,10.4-14,13.6L242.3,85.2z M242.3,68.9v-4.2
		l18.6-21.5l3.8,4.2c-0.3,7.9-2.4,15.2-5.8,21.5H242.3z M247.6,84.7c4.8-3.4,8.8-7.9,11.8-13.1h12.2
		C265.6,78.4,257.2,83.2,247.6,84.7 M273.9,68.9H261c3-5.9,4.9-12.6,5.4-19.6l11.6,12.9C276.8,64.6,275.4,66.9,273.9,68.9
		 M279.9,61.6l-1.2-1.3l-12.3-13.7l-1.8-2l-3.8-4.3l-18.6,21.4l-1,1.1l-1.3-1.5l-18.5-20.8l-4.5,5.1l-1.8,2l-11.6,13.2l-0.7,0.7
		h-3.1h-14.9l11.9-13l3.5-3.8l16.1-17.5h1.8h2h11.3l8.5,9.3l1.2,1.3l1.1-1.1l8.8-9.5h10.5h2h2.4l15.9,17.1l3.6,3.8l12.5,13.5h-15.5
		H279.9z"/>
	<path class="st0" d="M106.4,7.3L106.4,7.3c0.8,0,1.5-0.3,2-0.9c0.6-0.6,0.9-1.3,0.9-2.1c0-0.8-0.3-1.5-0.9-2
		c-0.6-0.6-1.3-0.8-2.1-0.8c-0.8,0-1.5,0.3-2.1,0.9c-0.6,0.6-0.9,1.3-0.9,2c0,0.8,0.3,1.5,0.9,2.1C104.9,7.1,105.6,7.3,106.4,7.3"/>
	<path class="st0" d="M79.9,7.3L79.9,7.3c0.8,0,1.5-0.3,2-0.9c0.6-0.6,0.9-1.3,0.9-2.1c0-0.8-0.3-1.5-0.9-2
		c-0.6-0.6-1.3-0.8-2.1-0.8c-0.8,0-1.5,0.3-2.1,0.9C77.3,3,77,3.6,77,4.4c0,0.8,0.3,1.5,0.9,2.1C78.5,7.1,79.2,7.3,79.9,7.3"/>
	<path class="st0" d="M93.1,31.2c-0.8,0-1.5,0.3-2.1,0.9c-0.6,0.6-0.9,1.3-0.9,2.1c0,0.8,0.3,1.5,0.9,2.1c0.6,0.6,1.3,0.9,2,0.9h0
		c0.8,0,1.5-0.3,2-0.9c0.6-0.6,0.9-1.3,0.9-2.1c0-0.8-0.3-1.5-0.9-2C94.6,31.5,93.9,31.2,93.1,31.2"/>
	<path class="st0" d="M83.6,32.1c-0.6,0.6-0.9,1.3-0.9,2c0,0.8,0.3,1.5,0.9,2.1c0.6,0.6,1.3,0.9,2,0.9h0c0.8,0,1.5-0.3,2-0.9
		c0.6-0.6,0.9-1.3,0.9-2.1c0-0.8-0.3-1.5-0.9-2c-0.6-0.6-1.3-0.8-2.1-0.8C84.9,31.2,84.2,31.5,83.6,32.1"/>
	<path class="st0" d="M30.5,32.1c-0.6-0.6-1.3-0.9-2.1-0.9c-0.8,0-1.5,0.3-2.1,0.9c-0.6,0.6-0.9,1.3-0.9,2c0,0.8,0.3,1.5,0.9,2.1
		c0.6,0.6,1.3,0.9,2,0.9h0c0.8,0,1.5-0.3,2-0.9c0.6-0.6,0.9-1.3,0.9-2.1C31.4,33.3,31.1,32.6,30.5,32.1"/>
	<path class="st0" d="M19,32.1c-0.6,0.6-0.9,1.3-0.9,2c0,0.8,0.3,1.5,0.9,2.1c0.6,0.6,1.3,0.9,2,0.9h0c0.8,0,1.5-0.3,2-0.9
		c0.6-0.6,0.9-1.3,0.9-2.1c0-0.8-0.3-1.5-0.9-2c-0.6-0.6-1.3-0.9-2.1-0.9C20.3,31.2,19.6,31.5,19,32.1"/>
	<path class="st0" d="M101.5,37c1.5-0.1,2.7-0.4,3.6-1c1.2-0.7,2.3-1.6,2.9-3.2c0.2-0.5,0.2-1.7,0.3-2.7c0-0.4,0-0.8,0-1l21.9,0
		c0.3,0.4,0.6,0.7,0.9,1c2,2,4.4,3.1,7.3,3.1c2.9,0,5.4-1,7.3-3.1c0.3-0.3,0.6-0.6,0.9-1l12,0c1.1,0,1.9-0.5,2.5-1.5
		c0.5-0.8,0.7-2.1,0.7-3.8l0-22.3l-4.4,0l0,21.6c0,1-0.1,1.5-0.1,1.6c0,0-8.8,0-8.8,0c0.1-0.7,0.2-1.4,0.2-2.1c0-2.8-1-5.3-3-7.4
		c-2-2-4.4-3.1-7.3-3.1c-2.9,0-5.3,1-7.3,3.1c-2,2-3,4.5-3,7.4c0,0.7,0.1,1.3,0.2,2l-19.7,0l0-15.2l-4.4,0l0,14.5
		c0,2.1-0.1,5.5-0.3,6.1c-0.2,0.6-0.4,1.2-0.7,1.6c-0.3,0.4-0.6,0.7-1.1,0.9c-0.2,0.1-0.5,0.2-0.8,0.2l-0.7,0.1l0,4.2L101.5,37z
		 M134.2,18.4c1.2-1.2,2.5-1.8,4.1-1.8l0-0.2v0.2c1.6,0,3,0.6,4.1,1.8c1.2,1.3,1.8,2.7,1.8,4.4c0,1.7-0.6,3.1-1.7,4.3
		c-1.2,1.2-2.5,1.8-4.2,1.8c-1.7,0-3.1-0.6-4.2-1.8c-1.1-1.2-1.7-2.6-1.7-4.3C132.5,21,133.1,19.6,134.2,18.4"/>
	<rect x="165.6" y="1.4" class="st0" width="4.3" height="27.5"/>
	<path class="st0" d="M6.5,26.4c0.9,0.9,2,1.6,3.2,2c1.2,0.4,3,0.6,5.5,0.6h26.9l-6.5-12.3c-0.6-1.5-0.6-2.6,1.2-3.4
		c0.2-0.1,0.5-0.2,0.7-0.2c1.3,0,2.2,1.4,2.6,2.2l5.5,8.9c1.2,2.3,3.5,3.8,6.7,4.4c0.6,0.2,1.3,0.3,2,0.3c0.2,0,0.4,0,0.5,0l0.3,0
		l0,0l0.2,0l9.2,0l0.3,0l10.2,0c1.6,0,2.8-0.3,3.9-1c0.4-0.2,0.7-0.5,1-0.8c0.4,0.5,0.9,0.9,1.5,1.2c1.2,0.8,2.5,1.1,4,1.1
		c2.1,0,4-0.7,5.6-2.1v1.6h4.4V9.4H91v7.5c0,2.3-0.1,3.9-0.3,4.6c-0.2,0.7-0.5,1.4-1,2c-0.5,0.6-1.1,1.1-1.7,1.5
		c-0.7,0.3-1.3,0.5-2,0.5c-0.7,0-1.3-0.1-1.8-0.3c-0.4-0.2-0.8-0.5-1.1-0.9c-0.3-0.4-0.5-0.9-0.7-1.6c-0.2-0.6-0.3-2-0.3-3.9l0-9.5
		l-4.1,0l-0.3,0l0,9.9c0,1.7-0.1,2.9-0.3,3.7c-0.1,0.6-0.4,1.1-0.9,1.5c-0.4,0.3-0.8,0.3-1.7,0.3l-18.7,0c-1.1,0-1.2,0-1.3-0.1
		l-0.1,0l-0.1,0c-0.1,0-0.5,0-0.9,0l-0.2,0c-2.7-0.4-3.6-1.8-4.4-3.1l-4.8-8.4c-1.7-3-4.4-4.4-7.4-3.9c-3.3,0.6-4.9,2.5-5.6,3.5
		c-0.8,1.2-1,2.6-0.7,3.6c0.2,0.6,0.5,1.2,1.3,2.6c0.7,1.2,1.7,3,3.2,5.9l-8.1,0l-0.2,0l-12.8,0c-1.7,0-2.9-0.2-3.7-0.6
		c-0.7-0.4-1.3-1-1.7-1.9C8.2,21.4,8,20.3,8,19c0-2.7,1-4.5,3-5.6l0.4-0.2l0-4.5l-1.1,0.4c-4.3,1.7-6.4,5.1-6.4,10
		c0,1.5,0.2,2.8,0.7,4C5,24.4,5.6,25.5,6.5,26.4"/>
	<path class="st0" d="M102.1,78.5v-0.2c0-0.4-0.3-0.8-0.8-0.8h0c-0.4,0-0.8,0.3-0.8,0.8v0.2c0,0.4,0.3,0.8,0.8,0.8h0
		C101.7,79.3,102.1,79,102.1,78.5"/>
	<path class="st0" d="M104.6,78.5v-0.2c0-0.4-0.3-0.8-0.8-0.8c-0.4,0-0.8,0.3-0.8,0.8v0.2c0,0.4,0.3,0.8,0.8,0.8
		C104.2,79.3,104.6,79,104.6,78.5"/>
	<path class="st0" d="M116.7,79.9c-0.8,0-1.4,0.1-1.9,0.3c-0.5,0.2-0.8,0.6-1.1,1.1c-0.2,0.5-0.3,1.1-0.3,2c0,0.7,0.1,1.2,0.2,1.7
		h-1h-0.5h-2.5h-0.5h-2.5H106h-0.8v-5l-0.2,0c-0.3,0-0.8-0.1-1.4-0.1c-0.6,0-1.1,0-1.5,0c-0.8,0-1.4,0.1-1.9,0.3
		c-0.5,0.2-0.8,0.6-1,1.1c-0.2,0.5-0.3,1.1-0.3,1.9c0,0.8,0.1,1.5,0.3,2c0.2,0.5,0.6,0.9,1.1,1.1c0.5,0.2,1.1,0.3,1.9,0.3h3.9h0.5
		h2.5h0.5h2.5h0.5h6.5v-6.5l-0.7-0.1C118,80,117.4,79.9,116.7,79.9 M103.5,85h-1.2c-0.5,0-0.8-0.1-1.1-0.2c-0.2-0.1-0.4-0.3-0.5-0.5
		c-0.1-0.3-0.2-0.7-0.2-1.1c0-0.5,0.1-0.8,0.2-1.1c0.1-0.2,0.3-0.4,0.5-0.5c0.2-0.1,0.6-0.2,1-0.2c0.3,0,0.8,0,1.3,0.1V85z
		 M117.5,85h-2c-0.1-0.1-0.1-0.3-0.2-0.5c-0.1-0.2-0.1-0.6-0.1-1.1c0-0.5,0-0.9,0.1-1.2c0.1-0.2,0.2-0.4,0.4-0.5
		c0.2-0.1,0.5-0.2,1-0.2c0.2,0,0.4,0,0.8,0V85z"/>
	<path class="st0" d="M117.3,78.5v-0.2c0-0.4-0.3-0.8-0.8-0.8h-0.1c-0.4,0-0.8,0.3-0.8,0.8v0.2c0,0.4,0.3,0.8,0.8,0.8h0.1
		C117,79.3,117.3,79,117.3,78.5"/>
	<path class="st0" d="M129,89.1L129,89.1c0.4,0,0.8-0.3,0.8-0.8v-0.1c0-0.4-0.3-0.8-0.8-0.8h0c-0.4,0-0.8,0.3-0.8,0.8v0.1
		C128.2,88.7,128.5,89.1,129,89.1"/>
	<path class="st0" d="M131.2,89.1L131.2,89.1c0.4,0,0.8-0.3,0.8-0.8v-0.1c0-0.4-0.3-0.8-0.8-0.8h0c-0.4,0-0.8,0.3-0.8,0.8v0.1
		C130.4,88.7,130.8,89.1,131.2,89.1"/>
	<path class="st0" d="M168.6,85H168h-0.5h-3.3h-0.5h-0.9v-7.7H161V85h-1h-0.5H157h-0.5h-0.6v-1.8c0-0.9-0.2-1.7-0.7-2.4
		c-0.5-0.7-1.3-1.1-2.4-1.1c-0.6,0-1.1,0.1-1.5,0.3c-0.4,0.2-0.8,0.4-1.1,0.7c-0.2,0.2-0.4,0.4-0.6,0.6v-1.5h-1.7V85h-1.2h-0.5
		h-13.4h-0.5H131v-5.1h-1.7V85H128h-0.5H125h-0.5h-1.2v-5.1h-1.7v6.7c0,0.5-0.1,0.8-0.2,1.1c-0.1,0.2-0.3,0.3-0.6,0.3
		c-0.2,0-0.4,0-0.6,0l-0.3,0v1.6l0.5,0c0.2,0,0.4,0,0.6,0c0.8,0,1.4-0.3,1.7-0.9c0.3-0.5,0.5-1.2,0.5-2.2h1.2h0.5h2.5h0.5h4.3h0.5
		h13.4h0.5h9.7h0.5h2.5h0.5h3.6h0.5h3.3h0.5h2.2v-9.2h-1.7V85z M154.2,85h-4.6v-1.3c1-1.5,2-2.3,3-2.3c0.5,0,0.9,0.2,1.2,0.6
		c0.3,0.4,0.4,0.9,0.4,1.5V85z"/>
	<path class="st0" d="M16.2,43.7l-12.3,28h5l3.8-8.2h9.1l3.8,8.2h4.8l-12.2-28H16.2z M14.7,58.9l2.5-5.4l2.4,5.4H14.7z"/>
	<rect x="33" y="43.7" class="st0" width="4.4" height="28"/>
	<polygon class="st0" points="73.4,43.7 71.4,43.7 62.4,63.9 53.2,43.7 51.3,43.7 47.6,71.3 47.6,71.6 52,71.6 54.1,56.8 61.4,71.5 
		61.4,71.6 63.3,71.6 70.6,57 72.6,71.6 77.1,71.6 	"/>
	<path class="st0" d="M92.2,59c0,2.3-0.1,3.9-0.3,4.6c-0.2,0.7-0.5,1.3-1,2c-0.5,0.6-1.1,1.1-1.7,1.4c-0.7,0.3-1.3,0.5-2,0.5
		c-0.7,0-1.3-0.1-1.8-0.3c-0.4-0.2-0.8-0.5-1.1-0.8c-0.3-0.4-0.5-0.9-0.7-1.6c-0.1-0.5-0.3-1.5-0.3-3.9v-9.6H79v10.2
		c0,2.6,0.3,4.5,0.9,5.8c0.6,1.3,1.5,2.4,2.7,3.2c1.2,0.8,2.6,1.1,4,1.1c2.1,0,4-0.7,5.6-2v1.6h4.4V51.3h-4.4V59z"/>
	<polygon class="st0" points="115.4,71.7 115.4,67.5 106.8,67.5 116.2,51.8 100.6,51.8 100.5,56 108.4,56 99.1,71.7 	"/>
	<path class="st0" d="M136,71.6V51.7h-4.4v1.7c-1.7-1.4-3.7-2.1-5.9-2.1c-2.9,0-5.4,1-7.4,3.1c-2,2-3,4.5-3,7.4c0,2.8,1,5.3,3,7.4
		c2,2.1,4.4,3.1,7.2,3.1c2.2,0,4.2-0.7,6-2.2v1.6H136z M130,66.3c-1.2,1.2-2.6,1.8-4.2,1.8c-1.7,0-3-0.6-4.2-1.8
		c-1.2-1.2-1.8-2.7-1.8-4.4c0-1.7,0.6-3.1,1.8-4.4c1.2-1.2,2.6-1.8,4.2-1.8c1.7,0,3.1,0.6,4.3,1.8c1.2,1.2,1.7,2.7,1.7,4.4
		C131.8,63.6,131.2,65.1,130,66.3"/>
	<rect x="138.7" y="51.8" class="st0" width="4.4" height="19.9"/>
	<path class="st0" d="M159.8,52.5c-1.2-0.8-2.6-1.1-4-1.1c-2.1,0-4,0.7-5.6,2v-1.6h-4.4v19.9h4.4v-7.6c0-2.3,0.1-3.9,0.3-4.6
		c0.2-0.7,0.5-1.4,1-2c0.5-0.6,1.1-1.1,1.7-1.4c0.7-0.3,1.3-0.5,2-0.5c0.7,0,1.3,0.1,1.7,0.3c0.4,0.2,0.8,0.5,1.1,0.9
		c0.3,0.4,0.5,0.9,0.7,1.6c0.1,0.4,0.3,1.5,0.3,3.9v9.5h4.4V61.5c0-2.6-0.3-4.5-0.9-5.8C162,54.3,161,53.3,159.8,52.5"/>
	<rect x="165.9" y="51.8" class="st0" width="4.4" height="19.9"/>
	<path class="st0" d="M143,43.6c-0.6-0.6-1.3-0.9-2.1-0.9c-0.8,0-1.5,0.3-2.1,0.9c-0.6,0.6-0.9,1.3-0.9,2.1c0,0.8,0.3,1.5,0.9,2.1
		c0.6,0.6,1.3,0.9,2.1,0.9c0.8,0,1.5-0.3,2.1-0.9c0.6-0.6,0.9-1.3,0.9-2.1C143.9,44.9,143.6,44.2,143,43.6"/>
	<path class="st0" d="M168.1,42.7c-0.8,0-1.5,0.3-2.1,0.9c-0.6,0.6-0.9,1.3-0.9,2.1c0,0.8,0.3,1.5,0.9,2.1c0.6,0.6,1.3,0.9,2.1,0.9
		c0.8,0,1.5-0.3,2.1-0.9c0.6-0.6,0.9-1.3,0.9-2.1c0-0.8-0.3-1.5-0.9-2.1C169.6,43,168.9,42.7,168.1,42.7"/>
	<polygon class="st0" points="5.9,82.4 9.5,82.4 9.5,80.6 5.9,80.6 5.9,78.9 9.7,78.9 9.7,77.1 3.9,77.1 3.9,86.6 9.9,86.6 
		9.9,84.8 5.9,84.8 	"/>
	<polygon class="st0" points="19.7,79.4 17.3,79.4 16.1,81.4 14.8,79.4 12.5,79.4 14.9,82.8 12.2,86.6 14.5,86.6 16.1,84.2 
		17.6,86.6 20,86.6 17.2,82.8 	"/>
	<path class="st0" d="M28.2,79.7c-0.1-0.1-0.3-0.1-0.5-0.3c-0.2-0.1-0.5-0.2-0.9-0.3c-0.3-0.1-0.7-0.1-1-0.1c-0.7,0-1.3,0.2-1.9,0.5
		c-0.6,0.3-1.1,0.8-1.4,1.4c-0.4,0.6-0.6,1.2-0.6,1.9c0,0.7,0.2,1.3,0.5,1.9c0.4,0.6,0.8,1,1.4,1.4c0.6,0.3,1.2,0.5,1.9,0.5
		c0.3,0,0.6,0,0.9-0.1c0.3-0.1,0.5-0.1,0.7-0.2c0.2-0.1,0.4-0.1,0.5-0.2c0.2-0.1,0.3-0.2,0.3-0.2c0.1,0,0.1-0.1,0.2-0.1l0,0v-2.4
		l-0.2,0.4c0,0,0,0.1-0.1,0.2c0,0.1-0.1,0.2-0.2,0.3c-0.1,0.1-0.3,0.2-0.4,0.3c-0.2,0.1-0.4,0.2-0.7,0.3c-0.3,0.1-0.6,0.1-0.9,0.1
		c-0.6,0-1.1-0.2-1.5-0.6c-0.4-0.4-0.6-0.9-0.6-1.5c0-0.6,0.2-1.1,0.6-1.5c0.4-0.4,0.9-0.6,1.5-0.6c0.3,0,0.6,0,0.9,0.1
		c0.3,0.1,0.5,0.2,0.7,0.3c0.2,0.1,0.3,0.2,0.4,0.3c0.1,0.1,0.2,0.2,0.3,0.3c0,0.1,0.1,0.1,0.1,0.2l0.2,0.3v-2.3l0,0
		C28.3,79.8,28.3,79.8,28.2,79.7"/>
	<path class="st0" d="M38.1,80.7c-0.2-0.3-0.4-0.6-0.6-0.8c-0.2-0.2-0.6-0.4-0.9-0.5c-0.4-0.1-0.8-0.2-1.2-0.2
		c-0.7,0-1.3,0.3-1.8,0.8v-3.4h-1.9v10h1.9v-3.8c0-0.5,0.1-1,0.4-1.3c0.3-0.3,0.7-0.5,1.1-0.5c0.5,0,0.9,0.2,1.2,0.5
		c0.3,0.3,0.4,0.8,0.4,1.3v3.8h1.9v-3.8c0-0.4,0-0.7-0.1-1C38.4,81.3,38.3,81,38.1,80.7"/>
	<path class="st0" d="M47.8,80.2c-0.2-0.3-0.5-0.5-0.8-0.7c-0.4-0.2-0.9-0.4-1.4-0.4c-0.7,0-1.3,0.2-1.9,0.5c-0.6,0.3-1,0.8-1.4,1.4
		c-0.3,0.6-0.5,1.2-0.5,1.9c0,0.7,0.2,1.3,0.5,1.9c0.3,0.6,0.8,1,1.4,1.4c0.6,0.3,1.2,0.5,1.9,0.5c0.5,0,0.9-0.1,1.3-0.3
		c0.3-0.2,0.6-0.4,0.8-0.7v0.8h1.9v-7.1h-1.9V80.2z M45.6,80.9c0.5,0,0.9,0.2,1.3,0.6c0.4,0.4,0.5,0.9,0.5,1.5s-0.2,1.1-0.5,1.5
		c-0.4,0.4-0.8,0.6-1.3,0.6c-0.5,0-1-0.2-1.3-0.6c-0.4-0.4-0.5-0.9-0.5-1.5s0.2-1.1,0.5-1.5C44.6,81.1,45.1,80.9,45.6,80.9"/>
	<path class="st0" d="M60,80.7c-0.2-0.3-0.4-0.6-0.6-0.8c-0.2-0.2-0.6-0.4-0.9-0.5c-0.4-0.1-0.8-0.2-1.2-0.2c-0.7,0-1.3,0.3-1.8,0.8
		v-0.6h-1.9v7.1h1.9v-3.8c0-0.5,0.2-1,0.4-1.3c0.3-0.3,0.7-0.5,1.1-0.5c0.5,0,0.9,0.2,1.1,0.5c0.3,0.3,0.4,0.8,0.4,1.3v3.8h1.9v-3.9
		c0-0.4,0-0.7-0.1-1C60.3,81.3,60.2,81,60,80.7"/>
	<path class="st0" d="M69.5,80c-0.2-0.3-0.5-0.5-0.8-0.7c-0.4-0.2-0.8-0.3-1.3-0.3c-0.7,0-1.3,0.2-1.9,0.5c-0.6,0.3-1,0.8-1.4,1.4
		c-0.3,0.6-0.5,1.2-0.5,1.9c0,0.7,0.2,1.3,0.5,1.9c0.3,0.6,0.8,1,1.4,1.4c0.6,0.3,1.2,0.5,1.9,0.5c0.5,0,1-0.1,1.4-0.4
		c0.3-0.2,0.6-0.4,0.8-0.6c-0.1,0.6-0.3,1-0.6,1.4c-0.4,0.4-1,0.6-1.7,0.6c-0.3,0-0.7,0-1-0.1c-0.3-0.1-0.6-0.2-0.8-0.4
		c-0.2-0.2-0.4-0.3-0.6-0.5c-0.2-0.1-0.3-0.3-0.4-0.5l-0.2-0.2v2.3l0,0c0.4,0.3,0.9,0.6,1.4,0.8c0.5,0.2,1.1,0.3,1.6,0.3
		c0.8,0,1.5-0.1,2.1-0.4c0.6-0.3,1.1-0.7,1.5-1.3c0.4-0.6,0.6-1.2,0.6-2h0v-6.3h-1.9V80z M67.4,80.7c0.5,0,0.9,0.2,1.3,0.6
		c0.4,0.4,0.5,0.9,0.5,1.5c0,0.6-0.2,1.1-0.5,1.5c-0.4,0.4-0.8,0.6-1.3,0.6c-0.5,0-0.9-0.2-1.3-0.6c-0.4-0.4-0.5-0.9-0.5-1.5
		c0-0.6,0.2-1.1,0.5-1.5C66.4,80.9,66.9,80.7,67.4,80.7"/>
	<path class="st0" d="M81.1,80.3c-0.3-0.4-0.7-0.7-1.2-0.9c-0.5-0.2-1-0.3-1.6-0.3c-0.7,0-1.3,0.2-1.9,0.5c-0.6,0.3-1,0.8-1.4,1.4
		c-0.3,0.6-0.5,1.2-0.5,1.9c0,0.7,0.2,1.3,0.5,1.9c0.3,0.6,0.8,1,1.4,1.4c0.6,0.3,1.2,0.5,1.9,0.5c1.2,0,2.3-0.3,3.2-0.8l0,0v-2
		l-0.1,0.1c-0.8,0.7-1.7,1-2.7,1c-0.5,0-1-0.1-1.4-0.4c-0.3-0.2-0.6-0.6-0.7-1H82l0-0.1c0-0.6-0.1-1.2-0.2-1.7
		C81.7,81.2,81.4,80.7,81.1,80.3 M77.3,81.1c0.3-0.2,0.6-0.3,1-0.3c0.4,0,0.7,0.1,1,0.3c0.3,0.2,0.5,0.4,0.6,0.8h-3.3
		C76.8,81.5,77,81.3,77.3,81.1"/>
</g>
</svg>
